<svg xmlns="http://www.w3.org/2000/svg" version="1.1" xmlns:xlink="http://www.w3.org/1999/xlink" viewBox="0 0 200 200"><rect width="200" height="200" fill="url('#gradient')"></rect><defs><linearGradient id="gradient" gradientTransform="rotate(45 0.5 0.5)"><stop offset="0%" stop-color="#edb126"></stop><stop offset="100%" stop-color="#ea5920"></stop></linearGradient></defs><g><g fill="#0d2946" transform="matrix(3.4334390575441778,0,0,3.4334390575441778,22.31648732779736,124.4160086761841)" stroke="#32bff8" stroke-width="0.2"><path d="M12.95-14.22L12.95 0L9.54 0L4.50-8.85L4.50 0L1.07 0L1.07-14.22L4.50-14.22L9.53-5.37L9.53-14.22L12.95-14.22ZM15.12-14.22L19.62-14.22L22.79-4.33L25.96-14.22L30.47-14.22L30.47 0L27.03 0L27.03-3.32L27.36-10.12L23.93 0L21.66 0L18.21-10.13L18.54-3.32L18.54 0L15.12 0L15.12-14.22ZM40.74-4.81L44.15-4.81Q44.08-3.33 43.35-2.19Q42.62-1.05 41.29-0.43Q39.97 0.20 38.27 0.20L38.27 0.20Q35.47 0.20 33.86-1.63Q32.25-3.46 32.25-6.79L32.25-6.79L32.25-7.49Q32.25-9.58 32.97-11.15Q33.70-12.71 35.07-13.57Q36.44-14.42 38.23-14.42L38.23-14.42Q40.82-14.42 42.39-13.06Q43.96-11.70 44.18-9.31L44.18-9.31L40.76-9.31Q40.72-10.61 40.11-11.17Q39.49-11.74 38.23-11.74L38.23-11.74Q36.95-11.74 36.36-10.78Q35.76-9.82 35.73-7.72L35.73-7.72L35.73-6.72Q35.73-4.44 36.30-3.47Q36.88-2.49 38.27-2.49L38.27-2.49Q39.45-2.49 40.08-3.05Q40.70-3.60 40.74-4.81L40.74-4.81Z"></path></g></g></svg>